<?xml version="1.0" standalone="no"?><!DOCTYPE svg PUBLIC "-//W3C//DTD SVG 1.1//EN" "http://www.w3.org/Graphics/SVG/1.1/DTD/svg11.dtd"><svg t="1585501301086" class="icon" viewBox="0 0 1024 1024" version="1.1" xmlns="http://www.w3.org/2000/svg" p-id="4134" xmlns:xlink="http://www.w3.org/1999/xlink" width="200" height="200"><defs><style type="text/css"></style></defs><path d="M938.666667 1024H85.333333a85.333333 85.333333 0 0 1-85.333333-85.333333V85.333333a85.333333 85.333333 0 0 1 85.333333-85.333333h853.333334a85.333333 85.333333 0 0 1 85.333333 85.333333v853.333334a85.333333 85.333333 0 0 1-85.333333 85.333333z" fill="#35465D" p-id="4135"></path><path d="M673.28 683.008c-11.882667 5.653333-34.602667 10.581333-51.52 11.029333-51.136 1.365333-61.034667-35.904-61.482667-62.976v-198.826666h128.256V335.573333h-127.786666V172.864H467.2c-1.514667 0-4.202667 1.365333-4.586667 4.778667-5.461333 49.792-28.8 137.173333-125.653333 172.117333v82.496h64.64v208.682667c0 71.445333 52.693333 172.928 191.829333 170.56 46.933333-0.810667 99.050667-20.48 110.592-37.397334l-30.72-91.093333z" fill="#FFFFFF" p-id="4136"></path></svg>