<?xml version="1.0" standalone="no"?><!DOCTYPE svg PUBLIC "-//W3C//DTD SVG 1.1//EN" "http://www.w3.org/Graphics/SVG/1.1/DTD/svg11.dtd"><svg t="1585409488073" class="icon" viewBox="0 0 1024 1024" version="1.1" xmlns="http://www.w3.org/2000/svg" p-id="3188" xmlns:xlink="http://www.w3.org/1999/xlink" width="200" height="200"><defs><style type="text/css"></style></defs><path d="M512 512m-512 0a512 512 0 1 0 1024 0 512 512 0 1 0-1024 0Z" fill="#049BFF" p-id="3189"></path><path d="M757.76 201.386667l0.006827 759.87968C684.817067 1001.260373 601.064107 1024 512 1024c-20.66432 0-41.045333-1.225387-61.067947-3.60448V320.187733L757.76 201.386667z" fill="#EA736A" p-id="3190"></path><path d="M587.332267 434.162347L558.557867 399.36 512 470.859093v177.943894h75.332267z" fill="#FFDC37" p-id="3191"></path><path d="M562.4832 476.501333v172.305067H512v-177.947307L558.557867 399.36l28.7744 34.802347z" fill="#050408" p-id="3192"></path><path d="M717.038933 415.300267l-28.7744-34.802347L641.706667 451.9936v280.343893h75.332266z" fill="#FFDC37" p-id="3193"></path><path d="M692.189867 457.639253v240.56832H641.706667v-246.21056l46.557866-71.499093 28.7744 34.798933z" fill="#050408" p-id="3194"></path><path d="M488.106667 274.899627V1023.453867c-12.63616-0.580267-25.14944-1.621333-37.526187-3.099307l0.354987-729.268907L488.106667 274.899627z" fill="#FBF9E9" p-id="3195"></path><path d="M488.106667 274.899627l23.893333 21.3504V1024c-8.011093 0-15.977813-0.18432-23.90016-0.546133L488.106667 274.896213z" fill="#0C28F8" p-id="3196"></path><path d="M617.813333 228.693333l0.006827 784.356694-3.713707 0.768-2.512213 0.50176c-2.556587 0.505173-5.12 0.989867-7.686827 1.45408l6.47168-1.215147-3.79904 0.723627-2.67264 0.49152c-2.77504 0.50176-5.556907 0.98304-8.349013 1.440426l7.215787-1.235626-4.355414 0.75776-2.860373 0.477866c-2.542933 0.41984-5.08928 0.8192-7.645867 1.194667l6.137174-0.948907-3.77856 0.59392-3.792214 0.566614-6.1952 0.866986 0.3584-774.219093L617.813333 228.693333z" fill="#FBF9E9" p-id="3197"></path><path d="M617.813333 225.28l23.893334 21.674667 0.003413 760.470186a508.55936 508.55936 0 0 1-23.893333 5.628587L617.813333 225.28z" fill="#0C28F8" p-id="3198"></path><path d="M7.63904 423.40352l913.667413 396.233387a514.638507 514.638507 0 0 1-31.156906 37.546666L709.973333 813.98784V764.586667h-206.09024L18.312533 648.192C6.376107 604.8256 0 559.158613 0 512c0-30.214827 2.618027-59.818667 7.63904-88.59648z" fill="#050408" p-id="3199"></path><path d="M30.173867 338.42176l906.082986 460.288a513.655467 513.655467 0 0 1-19.319466 26.65472L7.34208 425.096533a508.378453 508.378453 0 0 1 21.265067-82.271573l1.563306-4.406613z" fill="#FFFFFF" p-id="3200"></path><path d="M714.246827 218.5216l1.693013 10.103467-5.70368 0.95232 0.846507 2.833066 1.4336-2.699946 9.045333 4.79232-4.000427 7.55712 2.4576 0.699733-116.053333 407.4496-9.85088-2.809173 106.16832-372.74624-174.10048 328.48896-9.045333-4.79232L702.211413 249.1392l-278.36416 327.611733-7.80288-6.628693 258.116267-303.786667-337.681067 261.789014-6.273706-8.0896 338.244266-262.222507-446.324053 215.25504-4.447573-9.222827 450.6112-217.326933-606.651734 181.736107-2.93888-9.806507 603.695787-180.852053L31.020373 343.47008l-1.693013-10.100053 684.919467-114.845014z" fill="#FFFFFF" p-id="3201"></path><path d="M757.76 201.386667l75.10016 80.943786v628.681387a512.887467 512.887467 0 0 1-75.093333 50.254507L757.76 201.386667z" fill="#050408" p-id="3202"></path><path d="M863.573333 232.106667l0.006827 652.100266a514.812587 514.812587 0 0 1-37.485227 32.160427l0.3072-667.685547L863.573333 232.106667z" fill="#050408" p-id="3203"></path><path d="M863.573333 228.693333l23.893334 21.674667 0.013653 609.713493a515.20512 515.20512 0 0 1-23.903573 24.12544L863.573333 228.693333zM795.306667 204.8v733.740373a511.921493 511.921493 0 0 1-37.512534 22.71232l0.341334-739.877546L795.306667 204.8z" fill="#EA736A" p-id="3204"></path><path d="M795.306667 201.386667l44.373333 38.25664 0.006827 665.777493c-14.165333 11.810133-28.9792 22.869333-44.38016 33.122987V201.386667z" fill="#0C28F8" p-id="3205"></path><path d="M747.52 177.493333v789.23776a509.610667 509.610667 0 0 1-34.542933 16.315734L709.973333 983.04l0.375467-788.97152L747.52 177.493333z" fill="#FBF9E9" p-id="3206"></path><path d="M747.52 174.08l23.893333 21.674667 0.01024 757.74976a511.023787 511.023787 0 0 1-23.903573 13.23008V174.08z" fill="#0C28F8" p-id="3207"></path></svg>